<svg width="1002" height="1002" viewBox="0 0 1002 1002" fill="none" xmlns="http://www.w3.org/2000/svg">
<path fill-rule="evenodd" clip-rule="evenodd" d="M1001 0.99998C981.241 -9.14874 667.681 87.9306 501 251L501.007 251.007L500.748 251.266C333.878 88.6393 21.2299 -8.1335 1.5 1.99998C-0.525194 36.336 107.971 373.966 251.211 500.803L251.007 501.007L251 501C107.369 627.294 -1.52891 966.101 0.499998 1000.5C20.2596 1010.65 333.819 913.569 500.5 750.5L501.014 751.014L501.267 750.761C668.017 913.673 981.251 1010.64 1001 1000.5C1003.03 966.123 894.273 627.735 750.781 501.247L751.021 501.007L750.508 500.493C894.134 374.194 1003.03 35.3984 1001 0.99998ZM626 500C626 569.036 570.036 625 501 625C431.964 625 376 569.036 376 500C376 430.964 431.964 375 501 375C570.036 375 626 430.964 626 500Z" fill="black"/>
</svg>
